<mxfile host="Electron" agent="Mozilla/5.0 (Windows NT 10.0; Win64; x64) AppleWebKit/537.36 (KHTML, like Gecko) draw.io/27.0.9 Chrome/134.0.6998.205 Electron/35.4.0 Safari/537.36" version="27.0.9">
  <diagram name="Página-1" id="FojTh0W5zqZUxjxtluHg">
    <mxGraphModel dx="1111" dy="529" grid="1" gridSize="10" guides="1" tooltips="1" connect="1" arrows="1" fold="1" page="1" pageScale="1" pageWidth="850" pageHeight="1100" math="0" shadow="0">
      <root>
        <mxCell id="0" />
        <mxCell id="1" parent="0" />
        <mxCell id="mOoil3UXg39VozKLvSYW-22" style="edgeStyle=orthogonalEdgeStyle;rounded=0;orthogonalLoop=1;jettySize=auto;html=1;exitX=0.5;exitY=0.5;exitDx=0;exitDy=0;exitPerimeter=0;" edge="1" parent="1" source="mOoil3UXg39VozKLvSYW-1" target="mOoil3UXg39VozKLvSYW-62">
          <mxGeometry relative="1" as="geometry">
            <mxPoint x="312" y="282" as="targetPoint" />
          </mxGeometry>
        </mxCell>
        <mxCell id="mOoil3UXg39VozKLvSYW-1" value="Administrador de RH" style="shape=umlActor;verticalLabelPosition=bottom;verticalAlign=top;html=1;outlineConnect=0;" vertex="1" parent="1">
          <mxGeometry x="190" y="252" width="30" height="60" as="geometry" />
        </mxCell>
        <mxCell id="mOoil3UXg39VozKLvSYW-11" value="Sistema de Processamento de Salário - Processar Salário" style="swimlane;whiteSpace=wrap;html=1;" vertex="1" parent="1">
          <mxGeometry x="290" y="80" width="450" height="400" as="geometry" />
        </mxCell>
        <mxCell id="mOoil3UXg39VozKLvSYW-34" value="&amp;lt;&amp;lt;estender&amp;gt;&amp;gt;" style="html=1;verticalAlign=bottom;labelBackgroundColor=none;endArrow=open;endFill=0;dashed=1;rounded=0;exitX=0.29;exitY=0.9;exitDx=0;exitDy=0;exitPerimeter=0;" edge="1" parent="mOoil3UXg39VozKLvSYW-11" source="mOoil3UXg39VozKLvSYW-25">
          <mxGeometry width="160" relative="1" as="geometry">
            <mxPoint x="60" y="210" as="sourcePoint" />
            <mxPoint x="71.74576599898137" y="182.000387879787" as="targetPoint" />
          </mxGeometry>
        </mxCell>
        <mxCell id="mOoil3UXg39VozKLvSYW-35" value="&amp;lt;&amp;lt;estender&amp;gt;&amp;gt;" style="html=1;verticalAlign=bottom;labelBackgroundColor=none;endArrow=open;endFill=0;dashed=1;rounded=0;entryX=0.95;entryY=0.35;entryDx=0;entryDy=0;entryPerimeter=0;" edge="1" parent="mOoil3UXg39VozKLvSYW-11" source="mOoil3UXg39VozKLvSYW-26">
          <mxGeometry width="160" relative="1" as="geometry">
            <mxPoint x="124" y="94" as="sourcePoint" />
            <mxPoint x="117" y="203" as="targetPoint" />
          </mxGeometry>
        </mxCell>
        <mxCell id="mOoil3UXg39VozKLvSYW-36" value="&amp;lt;&amp;lt;estender&amp;gt;&amp;gt;" style="html=1;verticalAlign=bottom;labelBackgroundColor=none;endArrow=open;endFill=0;dashed=1;rounded=0;" edge="1" parent="mOoil3UXg39VozKLvSYW-11" source="mOoil3UXg39VozKLvSYW-31">
          <mxGeometry width="160" relative="1" as="geometry">
            <mxPoint x="216" y="132" as="sourcePoint" />
            <mxPoint x="121.79832121740128" y="214.69180114688652" as="targetPoint" />
          </mxGeometry>
        </mxCell>
        <mxCell id="mOoil3UXg39VozKLvSYW-38" value="&amp;lt;&amp;lt;estender&amp;gt;&amp;gt;" style="html=1;verticalAlign=bottom;labelBackgroundColor=none;endArrow=open;endFill=0;dashed=1;rounded=0;entryX=0.5;entryY=1;entryDx=0;entryDy=0;" edge="1" parent="mOoil3UXg39VozKLvSYW-11" source="mOoil3UXg39VozKLvSYW-33">
          <mxGeometry x="-0.016" width="160" relative="1" as="geometry">
            <mxPoint x="215" y="239" as="sourcePoint" />
            <mxPoint x="72" y="242" as="targetPoint" />
            <mxPoint as="offset" />
          </mxGeometry>
        </mxCell>
        <mxCell id="mOoil3UXg39VozKLvSYW-39" value="&amp;lt;&amp;lt;estender&amp;gt;&amp;gt;" style="html=1;verticalAlign=bottom;labelBackgroundColor=none;endArrow=open;endFill=0;dashed=1;rounded=0;exitX=0.3;exitY=0;exitDx=0;exitDy=0;exitPerimeter=0;" edge="1" parent="mOoil3UXg39VozKLvSYW-11" source="mOoil3UXg39VozKLvSYW-29">
          <mxGeometry width="160" relative="1" as="geometry">
            <mxPoint x="215" y="239" as="sourcePoint" />
            <mxPoint x="105.0810818543423" y="234.49513566095266" as="targetPoint" />
          </mxGeometry>
        </mxCell>
        <mxCell id="mOoil3UXg39VozKLvSYW-49" value="&amp;lt;&amp;lt;estender&amp;gt;&amp;gt;" style="html=1;verticalAlign=bottom;labelBackgroundColor=none;endArrow=open;endFill=0;dashed=1;rounded=0;exitX=0;exitY=1;exitDx=0;exitDy=0;" edge="1" parent="mOoil3UXg39VozKLvSYW-11" source="mOoil3UXg39VozKLvSYW-47">
          <mxGeometry width="160" relative="1" as="geometry">
            <mxPoint x="320" y="230" as="sourcePoint" />
            <mxPoint x="256.93061950964125" y="199.77608931614873" as="targetPoint" />
          </mxGeometry>
        </mxCell>
        <mxCell id="mOoil3UXg39VozKLvSYW-50" value="Gerar&lt;br&gt;&lt;div&gt;Holerite para&lt;/div&gt;&lt;div&gt;Colaborador&lt;/div&gt;" style="ellipse;whiteSpace=wrap;html=1;" vertex="1" parent="mOoil3UXg39VozKLvSYW-11">
          <mxGeometry x="140" y="90" width="100" height="60" as="geometry" />
        </mxCell>
        <mxCell id="mOoil3UXg39VozKLvSYW-51" value="Listar&lt;div&gt;Holerites&lt;/div&gt;&lt;div&gt;Gerados&lt;/div&gt;" style="ellipse;whiteSpace=wrap;html=1;" vertex="1" parent="mOoil3UXg39VozKLvSYW-11">
          <mxGeometry x="115" y="270" width="100" height="60" as="geometry" />
        </mxCell>
        <mxCell id="mOoil3UXg39VozKLvSYW-52" value="Calcular&amp;nbsp;&lt;div&gt;Salário Bruto&lt;/div&gt;" style="ellipse;whiteSpace=wrap;html=1;" vertex="1" parent="mOoil3UXg39VozKLvSYW-11">
          <mxGeometry x="300" y="30" width="100" height="60" as="geometry" />
        </mxCell>
        <mxCell id="mOoil3UXg39VozKLvSYW-53" value="Calcular&amp;nbsp;&lt;div&gt;IRT&lt;/div&gt;" style="ellipse;whiteSpace=wrap;html=1;" vertex="1" parent="mOoil3UXg39VozKLvSYW-11">
          <mxGeometry x="300" y="100" width="100" height="60" as="geometry" />
        </mxCell>
        <mxCell id="mOoil3UXg39VozKLvSYW-54" value="Calcular&amp;nbsp;&lt;div&gt;INSS&lt;/div&gt;" style="ellipse;whiteSpace=wrap;html=1;" vertex="1" parent="mOoil3UXg39VozKLvSYW-11">
          <mxGeometry x="300" y="172" width="100" height="60" as="geometry" />
        </mxCell>
        <mxCell id="mOoil3UXg39VozKLvSYW-55" value="Calcular&amp;nbsp;&lt;div&gt;Salário Líquido&lt;/div&gt;" style="ellipse;whiteSpace=wrap;html=1;" vertex="1" parent="mOoil3UXg39VozKLvSYW-11">
          <mxGeometry x="307.5" y="250" width="100" height="60" as="geometry" />
        </mxCell>
        <mxCell id="mOoil3UXg39VozKLvSYW-56" value="&amp;lt;&amp;lt;incluir&amp;gt;&amp;gt;" style="html=1;verticalAlign=bottom;labelBackgroundColor=none;endArrow=open;endFill=0;dashed=1;rounded=0;exitX=0.77;exitY=0.05;exitDx=0;exitDy=0;exitPerimeter=0;" edge="1" parent="mOoil3UXg39VozKLvSYW-11" source="mOoil3UXg39VozKLvSYW-50" target="mOoil3UXg39VozKLvSYW-52">
          <mxGeometry x="0.0064" width="160" relative="1" as="geometry">
            <mxPoint y="192" as="sourcePoint" />
            <mxPoint x="160" y="192" as="targetPoint" />
            <mxPoint as="offset" />
          </mxGeometry>
        </mxCell>
        <mxCell id="mOoil3UXg39VozKLvSYW-58" value="&amp;lt;&amp;lt;incluir&amp;gt;&amp;gt;" style="html=1;verticalAlign=bottom;labelBackgroundColor=none;endArrow=open;endFill=0;dashed=1;rounded=0;exitX=1.017;exitY=0.675;exitDx=0;exitDy=0;exitPerimeter=0;" edge="1" parent="mOoil3UXg39VozKLvSYW-11" source="mOoil3UXg39VozKLvSYW-50" target="mOoil3UXg39VozKLvSYW-54">
          <mxGeometry x="0.0063" width="160" relative="1" as="geometry">
            <mxPoint x="206" y="226" as="sourcePoint" />
            <mxPoint x="290" y="194" as="targetPoint" />
            <mxPoint as="offset" />
          </mxGeometry>
        </mxCell>
        <mxCell id="mOoil3UXg39VozKLvSYW-59" value="&amp;lt;&amp;lt;incluir&amp;gt;&amp;gt;" style="html=1;verticalAlign=bottom;labelBackgroundColor=none;endArrow=open;endFill=0;dashed=1;rounded=0;exitX=0.747;exitY=0.951;exitDx=0;exitDy=0;entryX=0;entryY=0;entryDx=0;entryDy=0;exitPerimeter=0;" edge="1" parent="mOoil3UXg39VozKLvSYW-11" source="mOoil3UXg39VozKLvSYW-50" target="mOoil3UXg39VozKLvSYW-55">
          <mxGeometry width="160" relative="1" as="geometry">
            <mxPoint x="210" y="242" as="sourcePoint" />
            <mxPoint x="280" y="247" as="targetPoint" />
          </mxGeometry>
        </mxCell>
        <mxCell id="mOoil3UXg39VozKLvSYW-60" value="Exportar&lt;div&gt;Holerite&lt;/div&gt;" style="ellipse;whiteSpace=wrap;html=1;" vertex="1" parent="mOoil3UXg39VozKLvSYW-11">
          <mxGeometry x="300" y="330" width="85" height="50" as="geometry" />
        </mxCell>
        <mxCell id="mOoil3UXg39VozKLvSYW-61" value="&amp;lt;&amp;lt;estender&amp;gt;&amp;gt;" style="html=1;verticalAlign=bottom;labelBackgroundColor=none;endArrow=open;endFill=0;dashed=1;rounded=0;entryX=0.63;entryY=0.967;entryDx=0;entryDy=0;entryPerimeter=0;" edge="1" parent="mOoil3UXg39VozKLvSYW-11" source="mOoil3UXg39VozKLvSYW-60" target="mOoil3UXg39VozKLvSYW-50">
          <mxGeometry x="-0.1019" y="26" width="160" relative="1" as="geometry">
            <mxPoint x="306" y="-97" as="sourcePoint" />
            <mxPoint x="210" y="-28" as="targetPoint" />
            <mxPoint as="offset" />
          </mxGeometry>
        </mxCell>
        <mxCell id="mOoil3UXg39VozKLvSYW-62" value="Processar&lt;div&gt;Salário&lt;/div&gt;" style="ellipse;whiteSpace=wrap;html=1;" vertex="1" parent="mOoil3UXg39VozKLvSYW-11">
          <mxGeometry x="30" y="172" width="100" height="60" as="geometry" />
        </mxCell>
        <mxCell id="mOoil3UXg39VozKLvSYW-63" value="&amp;lt;&amp;lt;incluir&amp;gt;&amp;gt;" style="html=1;verticalAlign=bottom;labelBackgroundColor=none;endArrow=open;endFill=0;dashed=1;rounded=0;" edge="1" parent="mOoil3UXg39VozKLvSYW-11" source="mOoil3UXg39VozKLvSYW-51" target="mOoil3UXg39VozKLvSYW-50">
          <mxGeometry width="160" relative="1" as="geometry">
            <mxPoint x="227" y="212" as="sourcePoint" />
            <mxPoint x="236" y="170" as="targetPoint" />
          </mxGeometry>
        </mxCell>
        <mxCell id="mOoil3UXg39VozKLvSYW-64" value="&amp;lt;&amp;lt;estender&amp;gt;&amp;gt;" style="html=1;verticalAlign=bottom;labelBackgroundColor=none;endArrow=open;endFill=0;dashed=1;rounded=0;entryX=0.57;entryY=0.033;entryDx=0;entryDy=0;exitX=0.02;exitY=0.667;exitDx=0;exitDy=0;entryPerimeter=0;exitPerimeter=0;" edge="1" parent="mOoil3UXg39VozKLvSYW-11" source="mOoil3UXg39VozKLvSYW-50" target="mOoil3UXg39VozKLvSYW-62">
          <mxGeometry x="-0.1019" y="26" width="160" relative="1" as="geometry">
            <mxPoint x="100" y="200" as="sourcePoint" />
            <mxPoint x="198" y="185" as="targetPoint" />
            <mxPoint as="offset" />
          </mxGeometry>
        </mxCell>
        <mxCell id="mOoil3UXg39VozKLvSYW-65" value="&amp;lt;&amp;lt;estender&amp;gt;&amp;gt;" style="html=1;verticalAlign=bottom;labelBackgroundColor=none;endArrow=open;endFill=0;dashed=1;rounded=0;entryX=0.5;entryY=1;entryDx=0;entryDy=0;exitX=0;exitY=0;exitDx=0;exitDy=0;" edge="1" parent="mOoil3UXg39VozKLvSYW-11" source="mOoil3UXg39VozKLvSYW-51" target="mOoil3UXg39VozKLvSYW-62">
          <mxGeometry x="-0.1019" y="26" width="160" relative="1" as="geometry">
            <mxPoint x="175" y="210" as="sourcePoint" />
            <mxPoint x="95" y="199" as="targetPoint" />
            <mxPoint as="offset" />
          </mxGeometry>
        </mxCell>
        <mxCell id="mOoil3UXg39VozKLvSYW-67" value="&amp;lt;&amp;lt;incluir&amp;gt;&amp;gt;" style="html=1;verticalAlign=bottom;labelBackgroundColor=none;endArrow=open;endFill=0;dashed=1;rounded=0;exitX=1;exitY=0.5;exitDx=0;exitDy=0;entryX=0;entryY=0.5;entryDx=0;entryDy=0;" edge="1" parent="mOoil3UXg39VozKLvSYW-11" source="mOoil3UXg39VozKLvSYW-50" target="mOoil3UXg39VozKLvSYW-53">
          <mxGeometry x="0.0064" width="160" relative="1" as="geometry">
            <mxPoint x="270" y="132" as="sourcePoint" />
            <mxPoint x="357" y="110" as="targetPoint" />
            <mxPoint as="offset" />
          </mxGeometry>
        </mxCell>
      </root>
    </mxGraphModel>
  </diagram>
</mxfile>
